<svg xmlns="http://www.w3.org/2000/svg" viewBox="0 0 422.07 95.79"><defs><style>.cls-1{fill:#a80002;}.cls-2{fill:#fff;}</style></defs><g id="Layer_2" data-name="Layer 2"><g id="Colored"><g id="Logo_long_white_1"><path class="cls-1" d="M70.46,32.82l-3.62,4.24a14.14,14.14,0,0,0-9.27-3.55c-7.24,0-13.29,4.88-13.29,19.36,0,13.86,5.78,19.29,13.23,19.29,4.52,0,7.45-2,10.16-4L71,72.37A18.75,18.75,0,0,1,57.3,77.73c-11.63,0-20.06-8.71-20.06-24.86S46.3,28.08,57.16,28.08A18.9,18.9,0,0,1,70.46,32.82Z"/><path class="cls-1" d="M104.92,58.51c0,11.35-6,19.22-16.36,19.22S72.2,70.21,72.2,58.58c0-11.35,6-19.22,16.43-19.22S104.92,46.88,104.92,58.51Zm-25.83.07c0,9.54,3.34,14,9.47,14S98,68.12,98,58.51s-3.35-14-9.4-14S79.09,49,79.09,58.58Z"/><path class="cls-1" d="M158.81,50.57V76.89H152.4V51.48c0-5.5-2.36-7.1-5.15-7.1-4,0-6.13,2.57-8.63,6.47v26h-6.41V51.48c0-5.5-2.37-7.1-5.15-7.1-4,0-6.2,2.57-8.63,6.47v26H112V40.2h5.5l.56,5.36c2.43-3.69,5.78-6.2,10.58-6.2A9.24,9.24,0,0,1,137.92,46c2.65-4,6-6.62,10.93-6.62C154.84,39.36,158.81,43.68,158.81,50.57Z"/><path class="cls-1" d="M198.63,58.51c0,11.14-4.94,19.22-14.41,19.22a11.86,11.86,0,0,1-9.61-4.18V91l-6.4.76V40.2h5.5l.48,4.94a13.35,13.35,0,0,1,10.86-5.78C194.8,39.36,198.63,47,198.63,58.51Zm-6.89,0c0-9.54-2.79-14.06-8.29-14.06-3.9,0-6.89,2.78-8.84,5.7v17.9a9.46,9.46,0,0,0,8.08,4.45C188.54,72.5,191.74,68.12,191.74,58.51Z"/><path class="cls-1" d="M214.44,72.43A6.18,6.18,0,0,0,216.8,72l1.67,4.45A12.35,12.35,0,0,1,213,77.73c-4.66,0-7.31-2.79-7.31-8.08V25.44l6.41-.77V69.51C212.14,71.46,212.76,72.43,214.44,72.43Z"/><path class="cls-1" d="M249.87,60.74H226.48c.63,8.49,4.6,11.76,9.89,11.76a15.45,15.45,0,0,0,9.54-3.2l2.78,3.83a20,20,0,0,1-12.81,4.6c-10.24,0-16.22-7.17-16.22-18.8,0-11.42,5.78-19.57,15.24-19.57,9.89,0,15.11,6.9,15.11,18.11C250,58.72,249.94,59.9,249.87,60.74Zm-6.19-5.15c0-7.18-2.86-11.14-8.64-11.14-4.87,0-8.07,3.41-8.56,11.55h17.2Z"/><path class="cls-1" d="M324,34.21V50.57h15.67v5.22H324v21.1h-6.61v-48h25.48l-.77,5.29Z"/><path class="cls-1" d="M357.44,27a4.49,4.49,0,1,1-4.53-4.39A4.27,4.27,0,0,1,357.44,27Zm-7.66,49.92V40.2h6.41V76.89Z"/><path class="cls-1" d="M376.24,77.73c-6.2,0-9.89-3.62-9.89-10.45V45.14H360V40.2h6.4V31.91l6.41-.76V40.2h8.7l-.7,4.94h-8V67c0,3.69,1.18,5.43,4.38,5.43a8.91,8.91,0,0,0,4.88-1.6l2.43,4.39A14,14,0,0,1,376.24,77.73Z"/><rect class="cls-2" x="15.9" y="24.63" width="13.01" height="62.35"/><rect class="cls-2" y="37.89" width="13.01" height="35.82"/><rect class="cls-2" x="393.07" y="24.63" width="13.01" height="62.35" transform="translate(799.15 111.61) rotate(180)"/><rect class="cls-2" x="409.06" y="37.89" width="13.01" height="35.82" transform="translate(831.13 111.61) rotate(180)"/><path class="cls-2" d="M299.88,95.79,280.23,62l-20,33.84H244.43l28-42.19L247.63,15.82h16.45l16.76,29.29,16.91-29.29h15.84L288.91,53l27.88,42.79Z"/><circle class="cls-1" cx="280.61" cy="11.29" r="11.29"/></g></g></g></svg>