<svg xmlns="http://www.w3.org/2000/svg" viewBox="0 0 222.88 146.26"><defs><style>.cls-1{fill:#a80002;}.cls-2{fill:#fff;}</style></defs><g id="Layer_2" data-name="Layer 2"><g id="Colored"><g id="Main_logo_white_2"><path class="cls-1" d="M23.36,104.83l-2.55,3a9.93,9.93,0,0,0-6.51-2.5c-5.09,0-9.35,3.43-9.35,13.62,0,9.74,4.06,13.56,9.3,13.56,3.18,0,5.24-1.42,7.15-2.84l2.35,3a13.18,13.18,0,0,1-9.65,3.77C5.92,136.42,0,130.3,0,118.94S6.37,101.5,14,101.5A13.35,13.35,0,0,1,23.36,104.83Z"/><path class="cls-1" d="M47.59,122.9c0,8-4.21,13.52-11.5,13.52S24.58,131.13,24.58,123c0-8,4.21-13.51,11.56-13.51S47.59,114.72,47.59,122.9Zm-18.16,0c0,6.71,2.35,9.84,6.66,9.84s6.66-3.13,6.66-9.89-2.35-9.84-6.61-9.84S29.43,116.19,29.43,123Z"/><path class="cls-1" d="M85.49,117.32v18.51H81V118c0-3.87-1.67-5-3.63-5-2.79,0-4.3,1.81-6.07,4.56v18.31h-4.5V118c0-3.87-1.67-5-3.63-5-2.79,0-4.35,1.81-6.07,4.56v18.31h-4.5V110h3.87l.39,3.77c1.71-2.59,4.06-4.35,7.44-4.35a6.5,6.5,0,0,1,6.51,4.65c1.86-2.79,4.21-4.65,7.69-4.65C82.7,109.44,85.49,112.47,85.49,117.32Z"/><path class="cls-1" d="M113.5,122.9c0,7.84-3.48,13.52-10.14,13.52a8.3,8.3,0,0,1-6.75-2.94v12.24l-4.51.54V110H96l.34,3.48a9.39,9.39,0,0,1,7.64-4.06C110.81,109.44,113.5,114.77,113.5,122.9Zm-4.85,0c0-6.71-2-9.89-5.83-9.89-2.74,0-4.84,2-6.21,4v12.58a6.63,6.63,0,0,0,5.68,3.13C106.4,132.74,108.65,129.66,108.65,122.9Z"/><path class="cls-1" d="M124.61,132.7a4.33,4.33,0,0,0,1.67-.3l1.17,3.14a8.79,8.79,0,0,1-3.82.88c-3.28,0-5.14-2-5.14-5.68V99.64L123,99.1v31.54C123,132,123.44,132.7,124.61,132.7Z"/><path class="cls-1" d="M149.54,124.47H133.08c.44,6,3.24,8.27,7,8.27a10.82,10.82,0,0,0,6.7-2.25l2,2.69a14,14,0,0,1-9,3.24c-7.19,0-11.41-5-11.41-13.22s4.07-13.76,10.73-13.76c7,0,10.62,4.84,10.62,12.73C149.63,123.05,149.59,123.88,149.54,124.47Zm-4.36-3.62c0-5-2-7.84-6.07-7.84-3.43,0-5.68,2.4-6,8.13h12.1Z"/><path class="cls-1" d="M167.55,135.83l-6.31-10.92-6.42,10.92h-5.09l9-13.61-8-12.2h5.29l5.38,9.45,5.44-9.45H172L164,122l9,13.81Z"/><path class="cls-1" d="M180.33,105.81v11.51h11V121h-11v14.84h-4.65V102.09H193.6l-.54,3.72Z"/><path class="cls-1" d="M203.88,100.72a3.16,3.16,0,1,1-3.18-3.08A3,3,0,0,1,203.88,100.72Zm-5.38,35.11V110H203v25.81Z"/><path class="cls-1" d="M217.1,136.42c-4.35,0-6.95-2.55-6.95-7.35V113.5h-4.5V110h4.5V104.2l4.51-.54V110h6.12l-.49,3.48h-5.63v15.38c0,2.59.83,3.82,3.08,3.82a6.36,6.36,0,0,0,3.43-1.13l1.71,3.08A9.79,9.79,0,0,1,217.1,136.42Z"/><rect class="cls-1" x="66.21" y="22.04" width="11.65" height="55.81"/><rect class="cls-1" x="51.98" y="33.92" width="11.65" height="32.06"/><rect class="cls-1" x="144.94" y="22.04" width="11.65" height="55.81" transform="translate(301.53 99.89) rotate(180)"/><rect class="cls-1" x="159.25" y="33.92" width="11.65" height="32.06" transform="translate(330.16 99.89) rotate(180)"/><path class="cls-2" d="M128.65,85.73,111.06,55.45,93.2,85.73H79L104.1,48,81.88,14.16H96.6l15,26.21,15.14-26.21h14.18L118.83,47.43l25,38.3Z"/><circle class="cls-1" cx="111.4" cy="10.1" r="10.1"/></g></g></g></svg>